<svg width="0" height="0" class="hidden">
  <symbol viewBox="0 0 146 50" fill="currentColor" xmlns="http://www.w3.org/2000/svg" id="nike">
    <path d="M81.745 16.417l-9.036 2.373-25.072 6.563c-8.854 2.191-16.599 5.109-24.062 2.555C13.43 23.526 13.612 12.127 21.175 0c-13.372 11.036-37.434 46.325-4.89 49.888 4.145.546 11.526-.909 19.544-4.281l36.88-15.136L145.45.727l-63.705 15.69z" fill="currentColor"></path>
  </symbol>
  <symbol viewBox="0 0 52 70" fill="currentColor" xmlns="http://www.w3.org/2000/svg" id="tinder">
    <path d="M51.993 42.542c-.927-13.763-8.077-27.212-21.295-40.056C29.316 1.14 28.128.022 28.06 0c-.069-.022.061.509.287 1.182.584 1.747 1.057 4.125 1.243 6.256.538 7.266-.446 15.718-9.976 20.895-1.447.734-1.313.587-1.598.332-.378-.332-1.24-1.475-1.764-2.54-.837-1.697-1.205-3.18-1.456-5.89l-.165-1.73-1.655 1.937a72.583 72.583 0 0 0-5.387 7.14c-9.174 13.85-10.08 26.487-2.444 34.193 6.002 5.86 13.75 8.457 24.965 6.735 13.144-1.786 22.174-10.195 21.884-25.969z"
      fill="currentColor"></path>
  </symbol>
  <symbol viewBox="0 0 24 24" fill="currentColor" xmlns="http://www.w3.org/2000/svg" id="twitter">
    <path fill-rule="evenodd" clip-rule="evenodd" d="M9.032 19c6.038 0 9.34-5.387 9.34-10.058 0-.153 0-.306-.01-.457A6.975 6.975 0 0 0 20 6.655a6.178 6.178 0 0 1-1.885.557 3.518 3.518 0 0 0 1.443-1.956 6.302 6.302 0 0 1-2.084.858c-1.244-1.423-3.323-1.492-4.645-.153-.852.863-1.215 2.15-.95 3.378-2.639-.143-5.098-1.486-6.765-3.694-.872 1.616-.426 3.681 1.016 4.719a3.083 3.083 0 0 1-1.49-.442v.045c0 1.682 1.102 3.131 2.634 3.464a3.04 3.04 0 0 1-1.482.06c.43 1.441 1.662 2.428 3.066 2.456-1.162.984-2.598 1.518-4.076 1.516a6.21 6.21 0 0 1-.782-.05 8.82 8.82 0 0 0 5.032 1.584"
      fill="currentColor"></path>
  </symbol>
  <symbol viewBox="0 0 80 63" fill="currentColor" xmlns="http://www.w3.org/2000/svg" id="xiaomi">
    <g fill="currentColor">
      <path d="M37.143 0H0v62.857h11.429V11.43h25.714c4.726 0 8.571 3.845 8.571 8.571v42.857h11.429V20c0-11.029-8.972-20-20-20z"></path>
      <path d="M34.286 22.857H22.857v40h11.429v-40zM80 0H68.571v62.857H80V0z"></path>
    </g>
  </symbol>
  <symbol viewBox="0 0 60 60" fill="currentColor" xmlns="http://www.w3.org/2000/svg" id="amd">
    <path d="M43.851 45.244a1.985 1.985 0 0 0-1.857-1.238H16V18c0-1.106-.9-2.006-1.988-2.006-.525 0-1.05.206-1.426.58l-12.004 12A1.998 1.998 0 0 0 0 30v27.994C0 59.1.9 60 2.007 60h28.002c.526 0 1.032-.206 1.426-.581l12.004-12a2.067 2.067 0 0 0 .412-2.175zM58.012 0H5.983C4.876 0 3.976.9 3.976 1.988c0 .525.207 1.05.582 1.425l12.003 12c.375.374.882.58 1.426.58H44V42c0 .525.207 1.031.582 1.425l12.003 12A1.998 1.998 0 1 0 60 54V2.006A1.993 1.993 0 0 0 58.012 0z"
      fill="currentColor"></path>
  </symbol>
  <symbol viewBox="0 0 56 68" fill="currentColor" xmlns="http://www.w3.org/2000/svg" id="apple">
    <g fill="currentColor">
      <path d="M2.89 24.997C-2.903 34.973.78 50.112 7.186 59.29 10.384 63.881 13.62 68 18.056 68c.083 0 .167-.002.253-.005 2.083-.083 3.589-.72 5.044-1.334 1.635-.691 3.325-1.406 5.976-1.406 2.522 0 4.132.691 5.688 1.36 1.534.658 3.115 1.34 5.45 1.296 4.994-.092 8.061-4.537 10.767-8.459 2.823-4.094 4.24-8.07 4.718-9.589l.019-.06a.556.556 0 0 0-.298-.684l-.042-.017c-.88-.357-8.595-3.754-8.676-13.012-.075-7.521 5.788-11.504 6.964-12.226l.055-.034a.557.557 0 0 0 .16-.783c-4.048-5.877-10.251-6.763-12.748-6.87a11.328 11.328 0 0 0-1.113-.053c-2.933 0-5.743 1.099-8 1.982-1.559.61-2.905 1.137-3.833 1.137-1.043 0-2.397-.534-3.965-1.15-2.096-.826-4.472-1.762-6.987-1.762l-.177.002c-5.848.086-11.374 3.406-14.421 8.664z"></path>
      <path d="M41.39 0c-3.54.144-7.79 2.307-10.329 5.258-2.157 2.481-4.266 6.617-3.71 10.786a.56.56 0 0 0 .513.483c.239.018.483.028.726.028 3.463 0 7.199-1.901 9.75-4.962 2.685-3.233 4.043-7.38 3.632-11.097A.564.564 0 0 0 41.39 0z"></path>
    </g>
  </symbol>
  <symbol viewBox="0 0 24 24" fill="currentColor" xmlns="http://www.w3.org/2000/svg" id="facebook">
    <path fill-rule="evenodd" clip-rule="evenodd" d="M13.457 19v-6.75h2.186l.357-3h-2.543V7.789c0-.772.021-1.539 1.172-1.539h1.167V4.105c0-.032-1.002-.105-2.015-.105-2.117 0-3.442 1.243-3.442 3.525V9.25H8v3h2.339V19h3.118z" fill="currentColor"></path>
  </symbol>
  <symbol viewBox="0 0 24 24" fill="currentColor" xmlns="http://www.w3.org/2000/svg" id="google">
    <path fill-rule="evenodd" clip-rule="evenodd" d="M18.875 10.603h-6.727c0 .7 0 2.098-.004 2.798h3.898c-.15.7-.68 1.68-1.428 2.172 0 0 0 .005-.002.004-.995.657-2.308.806-3.283.61a4.33 4.33 0 0 1-3.229-2.82c.003-.002.005-.021.007-.023-.307-.873-.307-2.042 0-2.741.396-1.286 1.642-2.46 3.172-2.78 1.23-.261 2.62.021 3.64.977.136-.133 1.88-1.836 2.011-1.974-3.49-3.16-9.076-2.049-11.167 2.032l-.004.008a6.837 6.837 0 0 0 .007 6.274l-.007.006a7.126 7.126 0 0 0 4.536 3.616c2.107.552 4.79.174 6.587-1.45l.002.001c1.522-1.37 2.47-3.707 1.991-6.71z"
      fill="currentColor"></path>
  </symbol>
  <symbol viewBox="0 0 24 24" fill="currentColor" xmlns="http://www.w3.org/2000/svg" id="linkedin">
    <path fill-rule="evenodd" clip-rule="evenodd" d="M20 19h-3.077v-5.603c0-1.537-.651-2.395-1.82-2.395-1.271 0-2.026.894-2.026 2.395V19H10V8.592h3.077v1.17S14.042 8 16.217 8C18.395 8 20 9.382 20 12.242V19zM5.5 6a1.5 1.5 0 1 1 0-3 1.5 1.5 0 0 1 0 3zM4 19h3V9H4v10z"
      fill="currentColor"></path>
  </symbol>
</svg>
